<svg width="258" height="197" viewBox="0 0 258 197" fill="none" xmlns="http://www.w3.org/2000/svg">
<path d="M3.99902 160.28L37.599 96.58H58.599L24.159 160.28H3.99902ZM3.99902 171.48V160.28L10.999 154.82H81.559V171.48H3.99902ZM50.479 195V132.28H69.239V195H50.479Z" fill="#343A40"/>
<path d="M129.081 196.4C121.335 196.4 114.335 194.3 108.081 190.1C101.828 185.9 96.8347 179.973 93.1013 172.32C89.4613 164.667 87.6413 155.753 87.6413 145.58C87.6413 135.407 89.4613 126.54 93.1013 118.98C96.7413 111.42 101.641 105.54 107.801 101.34C114.055 97.14 121.008 95.04 128.661 95.04C136.501 95.04 143.501 97.14 149.661 101.34C155.915 105.54 160.861 111.467 164.501 119.12C168.141 126.68 169.961 135.593 169.961 145.86C169.961 156.033 168.141 164.947 164.501 172.6C160.861 180.16 155.961 186.04 149.801 190.24C143.641 194.347 136.735 196.4 129.081 196.4ZM128.801 179.18C133.281 179.18 137.155 177.92 140.421 175.4C143.688 172.88 146.208 169.147 147.981 164.2C149.848 159.253 150.781 153.093 150.781 145.72C150.781 138.347 149.848 132.187 147.981 127.24C146.208 122.293 143.641 118.607 140.281 116.18C137.015 113.66 133.141 112.4 128.661 112.4C124.275 112.4 120.448 113.66 117.181 116.18C113.915 118.607 111.348 122.293 109.481 127.24C107.708 132.093 106.821 138.207 106.821 145.58C106.821 153.047 107.708 159.253 109.481 164.2C111.348 169.147 113.915 172.88 117.181 175.4C120.448 177.92 124.321 179.18 128.801 179.18Z" fill="#343A40"/>
<path d="M175.997 160.28L209.597 96.58H230.597L196.157 160.28H175.997ZM175.997 171.48V160.28L182.997 154.82H253.557V171.48H175.997ZM222.477 195V132.28H241.237V195H222.477Z" fill="#343A40"/>
<path d="M67.0548 28.551C54.6175 33.899 48.8558 48.2824 54.1856 60.6773C59.5154 73.0722 73.9184 78.7848 86.3557 73.4368L114.19 61.4681C126.627 56.1201 132.389 41.7366 127.059 29.3417C121.729 16.9469 107.326 11.2342 94.889 16.5822L67.0548 28.551Z" fill="#ADB5BD"/>
<path d="M152.5 84.0127C166.031 84.0127 177 73.0437 177 59.5127C177 45.9817 166.031 35.0127 152.5 35.0127C138.969 35.0127 128 45.9817 128 59.5127C128 73.0437 138.969 84.0127 152.5 84.0127Z" fill="#868E96"/>
<path d="M24.5 84.0127C38.031 84.0127 49 73.0437 49 59.5127C49 45.9817 38.031 35.0127 24.5 35.0127C10.969 35.0127 0 45.9817 0 59.5127C0 73.0437 10.969 84.0127 24.5 84.0127Z" fill="#868E96"/>
<path d="M200.867 0L240.344 38.0249C250.095 47.4169 250.412 62.9082 241.052 72.6257C231.692 82.3432 216.199 82.6071 206.449 73.2151L166.972 35.1902L200.867 0Z" fill="#CED4DA"/>
</svg>
