<svg width="40" height="40" viewBox="0 0 40 40" fill="none" xmlns="http://www.w3.org/2000/svg">
<path fill-rule="evenodd" clip-rule="evenodd" d="M26.01 25.5511C25.7171 25.844 25.2422 25.844 24.9494 25.5511L13.9892 14.591C13.6963 14.2981 13.6963 13.8232 13.9892 13.5303C14.2821 13.2374 14.757 13.2374 15.0499 13.5303L26.01 24.4905C26.3029 24.7834 26.3029 25.2583 26.01 25.5511Z" fill="#868E96"/>
<path fill-rule="evenodd" clip-rule="evenodd" d="M26.0121 13.53C26.305 13.8229 26.305 14.2978 26.0121 14.5907L15.0519 25.5508C14.759 25.8437 14.2842 25.8437 13.9913 25.5508C13.6984 25.2579 13.6984 24.7831 13.9913 24.4902L24.9514 13.53C25.2443 13.2371 25.7192 13.2371 26.0121 13.53Z" fill="#868E96"/>
</svg>
