<svg width="40" height="40" viewBox="0 0 40 40" fill="none" xmlns="http://www.w3.org/2000/svg">
<g id="ic_hamburger">
<path id="Line 26 (Stroke)" fill-rule="evenodd" clip-rule="evenodd" d="M28.5 14C28.5 14.4142 28.1642 14.75 27.75 14.75H12.25C11.8358 14.75 11.5 14.4142 11.5 14C11.5 13.5858 11.8358 13.25 12.25 13.25H27.75C28.1642 13.25 28.5 13.5858 28.5 14Z" fill="#868E96"/>
<path id="Line 27 (Stroke)" fill-rule="evenodd" clip-rule="evenodd" d="M28.5 20C28.5 20.4142 28.1642 20.75 27.75 20.75H12.25C11.8358 20.75 11.5 20.4142 11.5 20C11.5 19.5858 11.8358 19.25 12.25 19.25H27.75C28.1642 19.25 28.5 19.5858 28.5 20Z" fill="#868E96"/>
<path id="Line 28 (Stroke)" fill-rule="evenodd" clip-rule="evenodd" d="M28.5 26C28.5 26.4142 28.1642 26.75 27.75 26.75H12.25C11.8358 26.75 11.5 26.4142 11.5 26C11.5 25.5858 11.8358 25.25 12.25 25.25H27.75C28.1642 25.25 28.5 25.5858 28.5 26Z" fill="#868E96"/>
</g>
</svg>
