<svg width="19" height="15" viewBox="0 0 19 15" fill="none" xmlns="http://www.w3.org/2000/svg">
<g id="ic_logo_xs">
<g id="Union">
<path d="M3.84415 7.2238C5.66087 7.2238 7.13362 5.74857 7.13362 3.92879C7.13362 2.10901 5.66087 0.633789 3.84415 0.633789C2.02743 0.633789 0.554688 2.10901 0.554688 3.92879C0.554688 5.74857 2.02743 7.2238 3.84415 7.2238Z" fill="#1A9B6F"/>
<path d="M15.0152 14.6705C16.8319 14.6705 18.3047 13.1953 18.3047 11.3755C18.3047 9.55572 16.8319 8.0805 15.0152 8.0805C13.1985 8.0805 11.7258 9.55572 11.7258 11.3755C11.7258 13.1953 13.1985 14.6705 15.0152 14.6705Z" fill="#1A9B6F"/>
<path d="M7.65993 0.633789H15.0152C16.8319 0.633789 18.3046 2.10901 18.3046 3.92879C18.3046 5.74857 16.8319 7.2238 15.0152 7.2238H7.65993V0.633789Z" fill="#19DB7B"/>
<path d="M3.84415 8.0805C2.02743 8.0805 0.554688 9.55572 0.554688 11.3755C0.554688 13.1953 2.02743 14.6705 3.84415 14.6705H7.90993C9.72665 14.6705 11.1994 13.1953 11.1994 11.3755C11.1994 9.55572 9.72665 8.0805 7.90993 8.0805H3.84415Z" fill="#2F4CA9"/>
</g>
</g>
</svg>
